<svg width="84" height="21" viewBox="0 0 84 21" fill="none" xmlns="http://www.w3.org/2000/svg">
<path d="M8.162 16.132C3.894 16.132 0.924 12.964 0.924 8.3C0.924 3.636 3.806 0.467999 8.272 0.467999C11.682 0.467999 14.256 2.448 14.784 5.616H12.738C12.21 3.482 10.56 2.228 8.228 2.228C4.994 2.228 2.882 4.736 2.882 8.3C2.882 11.864 4.994 14.372 8.184 14.372C11.022 14.372 13.068 12.678 13.068 9.95V9.422H8.448V7.662H14.938V16H13.288L13.156 13.756C12.452 14.878 10.802 16.132 8.162 16.132ZM27.5895 14.35H28.1615V16H27.1715C25.6755 16 25.1695 15.362 25.1475 14.262C24.4435 15.274 23.3215 16.132 21.3855 16.132C18.9215 16.132 17.2495 14.9 17.2495 12.854C17.2495 10.61 18.8115 9.356 21.7595 9.356H25.0595V8.586C25.0595 7.134 24.0255 6.254 22.2655 6.254C20.6815 6.254 19.6255 7.002 19.4055 8.146H17.6015C17.8655 5.946 19.6475 4.648 22.3535 4.648C25.2135 4.648 26.8635 6.078 26.8635 8.696V13.602C26.8635 14.196 27.0835 14.35 27.5895 14.35ZM25.0595 11.424V10.874H21.5835C19.9775 10.874 19.0755 11.468 19.0755 12.744C19.0755 13.844 20.0215 14.592 21.5175 14.592C23.7615 14.592 25.0595 13.294 25.0595 11.424ZM30.3844 13.074V6.43H28.3604V4.78H30.3844V1.634H32.1884V4.78H35.0924V6.43H32.1884V13.052C32.1884 13.998 32.5184 14.35 33.4864 14.35H35.2684V16H33.3104C31.1544 16 30.3844 15.054 30.3844 13.074ZM42.3316 4.648C44.8396 4.648 46.8856 6.034 46.8856 9.752V16H45.0816V9.862C45.0816 7.53 43.9596 6.298 42.0236 6.298C39.9336 6.298 38.6356 7.86 38.6356 10.39V16H36.8316V0.599999H38.6356V6.628C39.2956 5.572 40.4396 4.648 42.3316 4.648ZM54.2262 16.132C50.8602 16.132 48.6602 13.822 48.6602 10.39C48.6602 6.98 50.8162 4.648 53.9842 4.648C57.1522 4.648 59.2202 6.65 59.3082 9.972C59.3082 10.214 59.2862 10.478 59.2642 10.742H50.5522V10.896C50.6182 13.03 51.9602 14.526 54.0942 14.526C55.6782 14.526 56.9102 13.69 57.2842 12.238H59.1102C58.6702 14.482 56.8222 16.132 54.2262 16.132ZM50.6622 9.246H57.3722C57.1962 7.31 55.8762 6.232 54.0062 6.232C52.3562 6.232 50.8382 7.42 50.6622 9.246ZM66.5588 4.78H67.0648V6.54H66.1628C63.8088 6.54 63.1708 8.498 63.1708 10.28V16H61.3668V4.78H62.9288L63.1708 6.474C63.6988 5.616 64.5568 4.78 66.5588 4.78Z" fill="white"/>
<path d="M67.6165 16L70.3445 0.599999H72.1485L69.4205 16H67.6165ZM75.0824 16.088L72.7504 4.78H74.5764L76.3584 13.91L81.4184 4.78H83.3764L75.8744 17.958C74.8404 19.762 74.3784 20.4 72.7944 20.4H70.5724L70.8584 18.75H72.3984C73.4324 18.75 73.7844 18.442 74.3784 17.364L75.0824 16.088Z" fill="#0D74CE"/>
</svg>
